<?xml version="1.0" standalone="no"?>
<!DOCTYPE svg PUBLIC "-//W3C//DTD SVG 20010904//EN"
 "http://www.w3.org/TR/2001/REC-SVG-20010904/DTD/svg10.dtd">
<svg version="1.0" xmlns="http://www.w3.org/2000/svg"
 width="70.000000pt" height="70.000000pt" viewBox="0 0 70.000000 70.000000"
 preserveAspectRatio="xMidYMid meet">
<metadata>
Created by potrace 1.14, written by Peter Selinger 2001-2017
</metadata>
<g transform="translate(0.000000,70.000000) scale(0.100000,-0.100000)"
fill="#000000" stroke="none">
<path d="M144 653 c2 -2 -6 -14 -18 -26 -20 -20 -22 -31 -20 -142 0 -66 -3
-125 -8 -132 -5 -6 -5 -14 0 -17 5 -3 8 -37 7 -76 -1 -39 2 -73 7 -76 5 -4 0
-15 -11 -25 -12 -11 -21 -24 -21 -30 0 -6 -5 -7 -12 -3 -8 5 -9 2 -5 -10 4
-10 7 -21 7 -24 0 -4 9 -13 21 -20 15 -10 19 -10 14 -1 -6 8 -4 10 6 3 21 -12
59 -13 59 0 0 7 3 8 8 1 9 -14 45 -14 54 0 5 7 8 7 8 0 0 -6 11 -11 25 -11 14
0 25 5 25 11 0 6 3 7 8 0 10 -14 52 -15 52 -1 0 7 3 7 8 1 12 -17 76 -12 90 7
7 10 11 22 8 27 -8 13 41 20 53 8 8 -8 11 -7 11 2 0 7 4 10 9 7 5 -3 14 1 21
9 7 8 17 12 23 8 6 -3 7 -1 3 5 -3 6 0 14 8 19 8 4 16 15 18 23 2 8 7 18 12
22 6 4 4 14 -5 24 -9 11 -9 15 -1 10 17 -10 15 9 -5 47 -17 31 -26 107 -13
107 8 0 6 37 -3 46 -3 4 0 19 8 35 19 36 19 49 0 49 -8 0 -15 4 -15 10 0 25
-124 108 -135 90 -9 -15 -45 -7 -51 13 -4 14 -9 15 -19 7 -9 -8 -15 -8 -20 0
-3 5 -11 10 -16 10 -6 0 -7 -6 -3 -12 6 -10 5 -10 -7 -1 -12 10 -18 10 -29 0
-10 -9 -11 -9 -6 1 9 15 -10 16 -19 2 -4 -7 -12 -7 -18 -2 -15 11 -68 9 -86
-2 -9 -6 -12 -5 -8 1 3 5 0 10 -8 10 -8 0 -13 -2 -11 -4z m311 -93 c-3 -5 -1
-10 5 -10 11 0 52 -62 58 -90 2 -8 3 -33 2 -55 -3 -83 1 -125 13 -118 4 2 7
-16 6 -41 -3 -42 -9 -51 -31 -47 -5 0 -8 -5 -8 -12 0 -6 -9 2 -20 18 -23 34
-26 50 -7 39 9 -6 9 -5 0 7 -6 8 -11 31 -11 51 0 20 -3 41 -6 47 -4 5 -2 12 4
16 6 4 7 12 3 18 -4 7 -8 18 -9 25 -1 7 -8 20 -16 29 -12 14 -20 108 -11 126
2 4 11 7 19 7 8 0 12 -4 9 -10z"/>
</g>
</svg>
